<?xml version="1.0" encoding="utf-8"?>
<svg version="1.1" xmlns="http://www.w3.org/2000/svg" xmlns:xlink="http://www.w3.org/1999/xlink" x="0px" y="0px"
	 viewBox="0 0 100 100" enable-background="new 0 0 100 100" xml:space="preserve">
<g id="Backdrop" display="none">
	<rect x="0" y="0" display="inline" fill="#FFFFFF" width="144" height="168"/>
</g>
<g id="Format" display="none">
	<rect display="inline" fill="#FFFFFF" width="100" height="100"/>
</g>
<g id="Design">
  <polygon fill="#FFFFFF" stroke="#000000" stroke-width="2" stroke-linecap="round" stroke-linejoin="round" stroke-miterlimit="10" points="10,30 10,70 30,90 70,90 90,70 90,30 70,10 30,10" />
  <polygon fill="#FFFFFF" stroke="#000000" stroke-width="2" stroke-linecap="round" stroke-linejoin="round" stroke-miterlimit="10" points="20,33 20,47 23,50 37,50 40,47 40,33 37,30 23,30" />
	<polygon fill="#FFFFFF" stroke="#000000" stroke-width="2" stroke-linecap="round" stroke-linejoin="round" stroke-miterlimit="10" points="60,33 60,47 63,50 77,50 80,47 80,33 77,30 63,30" />
	<polyline fill="none" stroke="#000000" stroke-width="2" stroke-linecap="round" stroke-linejoin="round" stroke-miterlimit="10"  points="30,75 43,65 57,75 70,65" />
</g>
<g id="Mockup" display="none">
</g>
<g id="Guides" display="none">
</g>
<g id="Comments" display="none">
</g>
</svg>
